<svg xmlns="http://www.w3.org/2000/svg" viewBox="0 0 512 512" width="512" height="512">
  <!-- Background Circle -->
  <circle cx="256" cy="256" r="256" fill="#000000"/>
  
  <!-- TikTok Logo Stylized -->
  <g fill="#ffffff">
    <!-- T Shape -->
    <path d="M355.904 128h-33.404c-3.472 0-6.292 2.82-6.292 6.292v27.127c0 3.472 2.82 6.292 6.292 6.292h11.71v19.864c-7.596-1.165-15.344-1.165-23.092 0v-84.575h-33.404c-3.472 0-6.292 2.82-6.292 6.292v27.127c0 3.472 2.82 6.292 6.292 6.292h11.71v50.219c-7.596 3.472-14.179 8.457-19.62 14.749v-71.26h-33.404c-3.472 0-6.292 2.82-6.292 6.292v27.127c0 3.472 2.82 6.292 6.292 6.292h11.71v89.839c0 45.988 37.531 83.519 83.519 83.519 45.988 0 83.519-37.531 83.519-83.519v-89.839h11.71c3.472 0 6.292-2.82 6.292-6.292v-27.127c0-3.472-2.82-6.292-6.292-6.292z"/>
    
    <!-- Music Note -->
    <path d="M256 384c-26.51 0-48-21.49-48-48s21.49-48 48-48 48 21.49 48 48-21.49 48-48 48zm0-80c-17.673 0-32 14.327-32 32s14.327 32 32 32 32-14.327 32-32-14.327-32-32-32z"/>
  </g>
  
  <!-- Red Accent -->
  <path d="M384 256c0 70.692-57.308 128-128 128-70.692 0-128-57.308-128-128 0-5.343 0.329-10.611 0.966-15.792 1.246-10.125 11.48-16.108 21.034-11.794 9.554 4.314 20.314 6.731 31.667 6.731 41.089 0 74.667-33.578 74.667-74.667v-0.011c0-8.357 6.765-15.134 15.121-15.134 8.357 0 15.121 6.777 15.121 15.134v0.011c0 41.089 33.578 74.667 74.667 74.667 11.353 0 22.113-2.417 31.667-6.731 9.554-4.314 19.788 1.669 21.034 11.794 0.637 5.181 0.966 10.449 0.966 15.792z" fill="#ff0050"/>
  
  <!-- Magnifying Glass -->
  <g fill="#ffffff">
    <circle cx="180" cy="180" r="40" fill="none" stroke="#ffffff" stroke-width="16"/>
    <path d="M210 210 L256 256" stroke="#ffffff" stroke-width="16" stroke-linecap="round"/>
  </g>
  
  <!-- Text: SAYER -->
  <text x="256" y="420" font-family="Arial, sans-serif" font-size="40" font-weight="bold" text-anchor="middle" fill="#ffffff">SAYER</text>
</svg>